<?xml version="1.0" encoding="UTF-8" standalone="no"?>
<!-- Created with Inkscape (http://www.inkscape.org/) -->
<svg
   xmlns:dc="http://purl.org/dc/elements/1.1/"
   xmlns:cc="http://creativecommons.org/ns#"
   xmlns:rdf="http://www.w3.org/1999/02/22-rdf-syntax-ns#"
   xmlns:svg="http://www.w3.org/2000/svg"
   xmlns="http://www.w3.org/2000/svg"
   xmlns:sodipodi="http://sodipodi.sourceforge.net/DTD/sodipodi-0.dtd"
   xmlns:inkscape="http://www.inkscape.org/namespaces/inkscape"
   width="660.48999"
   height="390.56"
   id="svg2828"
   sodipodi:version="0.32"
   inkscape:version="0.46"
   sodipodi:docname="Normal_ECG_2.svg"
   inkscape:output_extension="org.inkscape.output.svg.inkscape"
   version="1.0">
  <defs
     id="defs2830">
    <inkscape:perspective
       sodipodi:type="inkscape:persp3d"
       inkscape:vp_x="0 : 526.18109 : 1"
       inkscape:vp_y="0 : 1000 : 0"
       inkscape:vp_z="744.09448 : 526.18109 : 1"
       inkscape:persp3d-origin="372.04724 : 350.78739 : 1"
       id="perspective2836" />
    <inkscape:perspective
       id="perspective2419"
       inkscape:persp3d-origin="372.04724 : 350.78739 : 1"
       inkscape:vp_z="744.09448 : 526.18109 : 1"
       inkscape:vp_y="0 : 1000 : 0"
       inkscape:vp_x="0 : 526.18109 : 1"
       sodipodi:type="inkscape:persp3d" />
  </defs>
  <sodipodi:namedview
     id="base"
     pagecolor="#ffffff"
     bordercolor="#666666"
     borderopacity="1.0"
     gridtolerance="10000"
     guidetolerance="10"
     objecttolerance="10"
     inkscape:pageopacity="0.0"
     inkscape:pageshadow="2"
     inkscape:zoom="1"
     inkscape:cx="335.61275"
     inkscape:cy="183.06791"
     inkscape:document-units="px"
     inkscape:current-layer="layer1"
     showgrid="false"
     inkscape:window-width="1024"
     inkscape:window-height="712"
     inkscape:window-x="0"
     inkscape:window-y="22" />
  <metadata
     id="metadata2833">
    <rdf:RDF>
      <cc:Work
         rdf:about="">
        <dc:format>image/svg+xml</dc:format>
        <dc:type
           rdf:resource="http://purl.org/dc/dcmitype/StillImage" />
      </cc:Work>
    </rdf:RDF>
  </metadata>
  <g
     inkscape:label="Layer 1"
     inkscape:groupmode="layer"
     id="layer1"
     transform="translate(67.306162,-168.21586)">
    <path
       d="M -39.38527,183.06629 L 562.81032,183.06629"
       style="fill:none;stroke:#e0816e;stroke-width:1.41658533;stroke-linecap:butt;stroke-linejoin:miter;stroke-miterlimit:4;stroke-dasharray:none;stroke-opacity:1"
       id="path235" />
    <path
       d="M -39.38527,198.13611 L 562.81032,198.13611 M -39.38527,213.20605 L 562.81032,213.20605 M -39.38527,228.27593 L 562.81032,228.27593"
       style="fill:none;stroke:#e0816e;stroke-width:0.88538802;stroke-linecap:butt;stroke-linejoin:miter;stroke-miterlimit:4;stroke-dasharray:none;stroke-opacity:1"
       id="path237" />
    <path
       d="M -39.38527,243.34833 L 562.81032,243.34833"
       style="fill:none;stroke:#e0816e;stroke-width:1.41658533;stroke-linecap:butt;stroke-linejoin:miter;stroke-miterlimit:4;stroke-dasharray:none;stroke-opacity:1"
       id="path239" />
    <path
       d="M -39.38527,258.42071 L 562.81032,258.42071 M -39.38527,273.49061 L 562.81032,273.49061 M -39.38527,288.55795 L 562.81032,288.55795"
       style="fill:none;stroke:#e0816e;stroke-width:0.88538802;stroke-linecap:butt;stroke-linejoin:miter;stroke-miterlimit:4;stroke-dasharray:none;stroke-opacity:1"
       id="path241" />
    <path
       d="M -39.38527,303.63287 L 562.81032,303.63287"
       style="fill:none;stroke:#e0816e;stroke-width:1.41658533;stroke-linecap:butt;stroke-linejoin:miter;stroke-miterlimit:4;stroke-dasharray:none;stroke-opacity:1"
       id="path243" />
    <path
       d="M -39.398322,318.20499 L 563.04076,318.20499 M -39.398322,333.24801 L 563.04076,333.24801 M -39.398322,348.29107 L 563.04076,348.29107"
       style="fill:none;stroke:#e0816e;stroke-width:0.88477743;stroke-linecap:butt;stroke-linejoin:miter;stroke-miterlimit:4;stroke-dasharray:none;stroke-opacity:1"
       id="path245" />
    <path
       d="M -39.398322,363.33407 L 563.04076,363.33407"
       style="fill:none;stroke:#e0816e;stroke-width:1.41560853;stroke-linecap:butt;stroke-linejoin:miter;stroke-miterlimit:4;stroke-dasharray:none;stroke-opacity:1"
       id="path247" />
    <path
       d="M -39.398322,378.38209 L 563.04076,378.38209 M -39.398322,393.42509 L 563.04076,393.42509 M -39.398322,408.47065 L 563.04076,408.47065"
       style="fill:none;stroke:#e0816e;stroke-width:0.88477743;stroke-linecap:butt;stroke-linejoin:miter;stroke-miterlimit:4;stroke-dasharray:none;stroke-opacity:1"
       id="path249" />
    <path
       d="M -39.398322,423.51119 L 563.04076,423.51119"
       style="fill:none;stroke:#e0816e;stroke-width:1.41560853;stroke-linecap:butt;stroke-linejoin:miter;stroke-miterlimit:4;stroke-dasharray:none;stroke-opacity:1"
       id="path251" />
    <path
       d="M -39.35827,439.36045 L 563.00072,439.36045 M -39.35827,454.33649 L 563.00072,454.33649 M -39.35827,469.31259 L 563.00072,469.31259"
       style="fill:none;stroke:#e0816e;stroke-width:0.88267493;stroke-linecap:butt;stroke-linejoin:miter;stroke-miterlimit:4;stroke-dasharray:none;stroke-opacity:1"
       id="path253" />
    <path
       d="M -39.35827,484.28625 L 563.00072,484.28625"
       style="fill:none;stroke:#e0816e;stroke-width:1.41224444;stroke-linecap:butt;stroke-linejoin:miter;stroke-miterlimit:4;stroke-dasharray:none;stroke-opacity:1"
       id="path255" />
    <path
       d="M -39.35827,499.25735 L 563.00072,499.25735 M -39.35827,514.23347 L 563.00072,514.23347 M -39.35827,529.20957 L 563.00072,529.20957"
       style="fill:none;stroke:#e0816e;stroke-width:0.88267493;stroke-linecap:butt;stroke-linejoin:miter;stroke-miterlimit:4;stroke-dasharray:none;stroke-opacity:1"
       id="path257" />
    <path
       d="M -39.291886,544.20909 L 563.05738,544.20909 M -39.728302,544.02927 L -39.728302,183.10973"
       style="fill:none;stroke:#e0816e;stroke-width:1.41560447;stroke-linecap:butt;stroke-linejoin:miter;stroke-miterlimit:4;stroke-dasharray:none;stroke-opacity:1"
       id="path259" />
    <path
       d="M -24.866124,544.23687 L -24.866124,182.90191 M -9.7936043,544.23687 L -9.7936043,182.90191 M 5.2738757,544.23687 L 5.2738757,182.90191"
       style="fill:none;stroke:#e0816e;stroke-width:0.625;stroke-linecap:butt;stroke-linejoin:miter;stroke-miterlimit:4;stroke-dasharray:none;stroke-opacity:1"
       id="path261" />
    <path
       d="M 20.346396,544.23687 L 20.346396,182.90191"
       style="fill:none;stroke:#e0816e;stroke-width:0.99997497;stroke-linecap:butt;stroke-linejoin:miter;stroke-miterlimit:4;stroke-dasharray:none;stroke-opacity:1"
       id="path263" />
    <path
       d="M 35.418916,544.23687 L 35.418916,182.90191 M 50.486396,544.23687 L 50.486396,182.90191 M 65.556396,544.23687 L 65.556396,182.90191"
       style="fill:none;stroke:#e0816e;stroke-width:0.625;stroke-linecap:butt;stroke-linejoin:miter;stroke-miterlimit:4;stroke-dasharray:none;stroke-opacity:1"
       id="path265" />
    <path
       d="M 80.626396,544.23687 L 80.626396,182.90191"
       style="fill:none;stroke:#e0816e;stroke-width:0.99997497;stroke-linecap:butt;stroke-linejoin:miter;stroke-miterlimit:4;stroke-dasharray:none;stroke-opacity:1"
       id="path267" />
    <path
       d="M 95.698916,544.23687 L 95.698916,182.90191 M 110.76892,544.23687 L 110.76892,182.90191 M 125.83892,544.23687 L 125.83892,182.90191"
       style="fill:none;stroke:#e0816e;stroke-width:0.625;stroke-linecap:butt;stroke-linejoin:miter;stroke-miterlimit:4;stroke-dasharray:none;stroke-opacity:1"
       id="path269" />
    <path
       d="M 140.9114,544.23687 L 140.9114,182.90191"
       style="fill:none;stroke:#e0816e;stroke-width:0.99997497;stroke-linecap:butt;stroke-linejoin:miter;stroke-miterlimit:4;stroke-dasharray:none;stroke-opacity:1"
       id="path271" />
    <path
       d="M 155.9764,544.23687 L 155.9764,182.90191 M 171.04892,544.23687 L 171.04892,182.90191 M 186.1214,544.23687 L 186.1214,182.90191"
       style="fill:none;stroke:#e0816e;stroke-width:0.625;stroke-linecap:butt;stroke-linejoin:miter;stroke-miterlimit:4;stroke-dasharray:none;stroke-opacity:1"
       id="path273" />
    <path
       d="M 201.18892,544.23687 L 201.18892,182.90191"
       style="fill:none;stroke:#e0816e;stroke-width:0.99997497;stroke-linecap:butt;stroke-linejoin:miter;stroke-miterlimit:4;stroke-dasharray:none;stroke-opacity:1"
       id="path275" />
    <path
       d="M 216.2614,544.23687 L 216.2614,182.90191 M 231.32892,544.23687 L 231.32892,182.90191 M 246.4014,544.23687 L 246.4014,182.90191"
       style="fill:none;stroke:#e0816e;stroke-width:0.625;stroke-linecap:butt;stroke-linejoin:miter;stroke-miterlimit:4;stroke-dasharray:none;stroke-opacity:1"
       id="path277" />
    <path
       d="M 261.4739,544.23687 L 261.4739,182.90191"
       style="fill:none;stroke:#e0816e;stroke-width:0.99997497;stroke-linecap:butt;stroke-linejoin:miter;stroke-miterlimit:4;stroke-dasharray:none;stroke-opacity:1"
       id="path279" />
    <path
       d="M 277.04564,544.31039 L 277.04564,182.97543 M 292.11816,544.31039 L 292.11816,182.97543 M 307.19064,544.31039 L 307.19064,182.97543"
       style="fill:none;stroke:#e0816e;stroke-width:0.625;stroke-linecap:butt;stroke-linejoin:miter;stroke-miterlimit:4;stroke-dasharray:none;stroke-opacity:1"
       id="path2961" />
    <path
       d="M 322.25816,544.31039 L 322.25816,182.97543"
       style="fill:none;stroke:#e0816e;stroke-width:0.99997497;stroke-linecap:butt;stroke-linejoin:miter;stroke-miterlimit:4;stroke-dasharray:none;stroke-opacity:1"
       id="path2963" />
    <path
       d="M 337.33064,544.31039 L 337.33064,182.97543 M 352.39816,544.31039 L 352.39816,182.97543 M 367.47064,544.31039 L 367.47064,182.97543"
       style="fill:none;stroke:#e0816e;stroke-width:0.625;stroke-linecap:butt;stroke-linejoin:miter;stroke-miterlimit:4;stroke-dasharray:none;stroke-opacity:1"
       id="path2965" />
    <path
       d="M 382.54314,544.31039 L 382.54314,182.97543"
       style="fill:none;stroke:#e0816e;stroke-width:0.99997497;stroke-linecap:butt;stroke-linejoin:miter;stroke-miterlimit:4;stroke-dasharray:none;stroke-opacity:1"
       id="path2967" />
    <path
       d="M 397.27102,544.27363 L 397.27102,182.93867 M 412.33854,544.27363 L 412.33854,182.93867 M 427.41102,544.27363 L 427.41102,182.93867"
       style="fill:none;stroke:#e0816e;stroke-width:0.625;stroke-linecap:butt;stroke-linejoin:miter;stroke-miterlimit:4;stroke-dasharray:none;stroke-opacity:1"
       id="path3011" />
    <path
       d="M 442.48352,544.27363 L 442.48352,182.93867"
       style="fill:none;stroke:#e0816e;stroke-width:0.99997497;stroke-linecap:butt;stroke-linejoin:miter;stroke-miterlimit:4;stroke-dasharray:none;stroke-opacity:1"
       id="path3013" />
    <path
       d="M 458.05526,544.34715 L 458.05526,183.01219 M 473.12778,544.34715 L 473.12778,183.01219 M 488.20026,544.34715 L 488.20026,183.01219"
       style="fill:none;stroke:#e0816e;stroke-width:0.625;stroke-linecap:butt;stroke-linejoin:miter;stroke-miterlimit:4;stroke-dasharray:none;stroke-opacity:1"
       id="path3017" />
    <path
       d="M 503.26778,544.34715 L 503.26778,183.01219"
       style="fill:none;stroke:#e0816e;stroke-width:0.99997497;stroke-linecap:butt;stroke-linejoin:miter;stroke-miterlimit:4;stroke-dasharray:none;stroke-opacity:1"
       id="path3019" />
    <path
       d="M 518.34026,544.34715 L 518.34026,183.01219 M 533.40778,544.34715 L 533.40778,183.01219 M 548.48026,544.34715 L 548.48026,183.01219"
       style="fill:none;stroke:#e0816e;stroke-width:0.625;stroke-linecap:butt;stroke-linejoin:miter;stroke-miterlimit:4;stroke-dasharray:none;stroke-opacity:1"
       id="path3021" />
    <path
       d="M 563.55276,544.34715 L 563.55276,183.01219"
       style="fill:none;stroke:#e0816e;stroke-width:0.99997497;stroke-linecap:butt;stroke-linejoin:miter;stroke-miterlimit:4;stroke-dasharray:none;stroke-opacity:1"
       id="path3023" />
    <path
       style="fill:none;fill-rule:evenodd;stroke:#000000;stroke-width:2;stroke-linecap:butt;stroke-linejoin:miter;stroke-miterlimit:4;stroke-dasharray:none;stroke-opacity:1"
       d="M -2.2146411,438.1353 C -2.2146411,438.1353 12.474334,439.66688 19.432015,435.94324 C 23.613059,433.70561 25.904118,425.15556 29.844329,422.51683 C 31.237403,421.58391 33.679762,421.09544 35.324494,421.42081 C 37.650497,421.88095 40.248917,424.10386 41.900694,425.80493 C 44.061649,428.03038 44.829109,432.80944 47.380861,434.5732 C 51.518484,437.43314 59.872297,434.74617 63.821358,437.86131 C 67.517622,440.77703 70.397557,452.10974 70.397557,452.10974 L 81.357889,315.10559 L 87.934088,472.93437 C 87.934088,472.93437 87.371408,444.80354 95.60632,437.86131 C 101.14275,433.19394 112.47963,436.92971 119.71905,436.76526 C 126.62227,436.60845 135.97174,438.15362 142.73574,436.76526 C 145.18874,436.26177 148.28202,434.80045 150.40797,433.47717 C 155.55525,430.27328 160.58905,423.50264 165.75245,420.32478 C 169.39276,418.0843 174.74151,413.876 178.90484,414.84461 C 185.71359,416.4287 189.28105,427.46332 194.24929,432.38113 C 196.40379,434.51374 198.92739,438.48293 201.92153,438.95735 C 215.30679,441.07822 255.62716,438.95733 255.62716,438.95733"
       id="path2425"
       sodipodi:nodetypes="csssssscccsssssssss" />
    <path
       style="fill:none;fill-rule:evenodd;stroke:#000000;stroke-width:2;stroke-linecap:butt;stroke-linejoin:miter;stroke-miterlimit:4;stroke-dasharray:none;stroke-opacity:1"
       d="M 255.43739,438.84241 C 255.43739,438.84241 273.83867,439.66688 280.79635,435.94324 C 284.9774,433.70561 287.26846,425.15556 291.20867,422.51683 C 292.60174,421.58391 295.0441,421.09544 296.68883,421.42081 C 299.01484,421.88095 301.61326,424.10386 303.26503,425.80493 C 305.42599,428.03038 306.19345,432.80944 308.7452,434.5732 C 312.88282,437.43314 321.23664,434.74617 325.1857,437.86131 C 328.88196,440.77703 331.7619,452.10974 331.7619,452.10974 L 342.72223,315.10559 L 349.29843,472.93437 C 349.29843,472.93437 348.73575,444.80354 356.97066,437.86131 C 362.50709,433.19394 373.84397,436.92971 381.08339,436.76526 C 387.98661,436.60845 397.33608,438.15362 404.10008,436.76526 C 406.55308,436.26177 409.64636,434.80045 411.77231,433.47717 C 416.91959,430.27328 421.95339,423.50264 427.11679,420.32478 C 430.7571,418.0843 436.10585,413.876 440.26918,414.84461 C 447.07793,416.4287 450.64539,427.46332 455.61363,432.38113 C 457.76813,434.51374 460.29173,438.48293 463.28587,438.95735 C 476.67113,441.07822 516.9915,438.95733 516.9915,438.95733"
       id="path3197"
       sodipodi:nodetypes="csssssscccsssssssss" />
  </g>
</svg>
